<?xml version="1.0" encoding="utf-8"?>
<!-- Generator: Adobe Illustrator 21.0.2, SVG Export Plug-In . SVG Version: 6.00 Build 0)  -->
<svg version="1.1" id="Layer_1" xmlns="http://www.w3.org/2000/svg" xmlns:xlink="http://www.w3.org/1999/xlink" x="0px" y="0px"
	 viewBox="0 0 32.9 53.7" style="enable-background:new 0 0 32.9 53.7;" xml:space="preserve">
<style type="text/css">
	.st0{fill:#C65C05;stroke:#000000;stroke-miterlimit:10;}
	.st1{fill:#FFFFFF;}
</style>
<path id="svg_2" class="st0" d="M16.4,50.9c-1.1-5.6-3.2-10.3-5.6-14.6C9,33.1,6.9,30.1,4.9,27c-0.6-1-1.2-2.1-1.8-3.2
	c-1.2-2.2-2.3-4.7-2.2-7.9c0.1-3.2,1-5.7,2.3-7.8c2.2-3.4,5.8-6.2,10.7-7c4-0.6,7.7,0.4,10.4,2c2.2,1.3,3.9,3,5.1,5
	c1.3,2.1,2.3,4.6,2.3,7.8c0,1.6-0.2,3.2-0.6,4.4c-0.4,1.3-1,2.4-1.6,3.5C28.6,26,27.2,28,25.9,30C21.8,36.1,18.1,42.4,16.4,50.9z"/>
<g>
	<path class="st1" d="M21.4,9.6L8.5,12.7L5,13.5l0.9,3.6l0.8,3.5l0.9,3.6l3.5-0.8L24,20.2l3.6-0.9l-0.9-3.5l-0.9-3.6L25,8.7
		L21.4,9.6z M25.5,15.8c0,0-0.1,0-0.1,0c-1.5,0.4-2.4,1.8-2,3.3c0,0,0,0,0,0.1l-12.3,3c0,0,0,0,0-0.1c-0.4-1.5-1.8-2.4-3.3-2
		c0,0,0,0,0,0l-0.7-2.9c0,0,0,0,0,0c1.5-0.4,2.4-1.8,2-3.3c0,0,0,0,0-0.1l12.3-3c0,0,0,0,0,0.1c0.4,1.5,1.8,2.4,3.3,2
		c0,0,0.1,0,0.1,0L25.5,15.8z"/>
	<path class="st1" d="M15.4,12.8c-2,0.5-3.2,2.5-2.8,4.5c0.5,2,2.5,3.2,4.5,2.8c2-0.5,3.3-2.5,2.8-4.5
		C19.5,13.6,17.5,12.3,15.4,12.8 M17.1,18.4l0.2,0.7l-0.7,0.2l-0.2-0.6c-0.5,0.1-0.9,0.1-1.2,0l0-0.8c0.3,0.1,0.8,0.1,1.2,0
		c0.4-0.1,0.6-0.3,0.6-0.6c-0.1-0.3-0.3-0.4-0.9-0.4c-0.8-0.1-1.3-0.3-1.5-0.9c-0.1-0.6,0.2-1.2,0.8-1.5l-0.2-0.6l0.7-0.2l0.1,0.6
		c0.4-0.1,0.8-0.1,1,0l0,0.8c-0.2,0-0.5-0.1-1,0c-0.4,0.1-0.5,0.3-0.5,0.5c0.1,0.2,0.3,0.3,1,0.4c0.9,0.1,1.3,0.4,1.4,1
		C18.1,17.5,17.8,18.1,17.1,18.4"/>
</g>
</svg>
