<?xml version="1.0" encoding="utf-8"?>
<!-- Generator: Adobe Illustrator 21.0.2, SVG Export Plug-In . SVG Version: 6.00 Build 0)  -->
<svg version="1.1" id="Layer_1" xmlns="http://www.w3.org/2000/svg" xmlns:xlink="http://www.w3.org/1999/xlink" x="0px" y="0px"
	 viewBox="0 0 32.4 54.4" style="enable-background:new 0 0 32.4 54.4;" xml:space="preserve">
<style type="text/css">
	.st0{fill:#1F9606;stroke:#000000;stroke-miterlimit:10;}
	.st1{fill:#FFFFFF;}
</style>
<path id="svg_2" class="st0" d="M16.2,51.4c-1.1-5.6-3.2-10.3-5.6-14.6c-1.8-3.2-3.9-6.2-5.9-9.3c-0.6-1-1.2-2.1-1.8-3.2
	c-1.2-2.2-2.3-4.7-2.2-7.9c0.1-3.2,1-5.7,2.3-7.8c2.2-3.4,5.8-6.2,10.7-7c4-0.6,7.7,0.4,10.4,2c2.2,1.3,3.9,3,5.1,5
	c1.3,2.1,2.3,4.6,2.3,7.8c0,1.6-0.2,3.2-0.6,4.4c-0.4,1.3-1,2.4-1.6,3.5c-1.1,2.2-2.4,4.3-3.8,6.3C21.6,36.7,17.9,42.9,16.2,51.4z"
	/>
<g>
	<path class="st1" d="M21.2,10.1L8.3,13.2L4.8,14l0.9,3.6l0.8,3.5l0.9,3.6l3.5-0.8l12.9-3.1l3.6-0.9l-0.9-3.5l-0.9-3.6l-0.9-3.5
		L21.2,10.1z M25.3,16.3c0,0-0.1,0-0.1,0c-1.5,0.4-2.4,1.8-2,3.3c0,0,0,0,0,0.1l-12.3,3c0,0,0,0,0-0.1c-0.4-1.5-1.8-2.4-3.3-2
		c0,0,0,0,0,0l-0.7-2.9c0,0,0,0,0,0c1.5-0.4,2.4-1.8,2-3.3c0,0,0,0,0-0.1l12.3-3c0,0,0,0,0,0.1c0.4,1.5,1.8,2.4,3.3,2
		c0,0,0.1,0,0.1,0L25.3,16.3z"/>
	<path class="st1" d="M15.2,13.3c-2,0.5-3.2,2.5-2.8,4.5c0.5,2,2.5,3.2,4.5,2.8c2-0.5,3.3-2.5,2.8-4.5
		C19.3,14.1,17.2,12.8,15.2,13.3 M16.8,18.9l0.2,0.7l-0.7,0.2l-0.2-0.6c-0.5,0.1-0.9,0.1-1.2,0l0-0.8c0.3,0.1,0.8,0.1,1.2,0
		c0.4-0.1,0.6-0.3,0.6-0.6c-0.1-0.3-0.3-0.4-0.9-0.4c-0.8-0.1-1.3-0.3-1.5-0.9c-0.1-0.6,0.2-1.2,0.8-1.5l-0.2-0.6l0.7-0.2l0.1,0.6
		c0.4-0.1,0.8-0.1,1,0l0,0.8c-0.2,0-0.5-0.1-1,0c-0.4,0.1-0.5,0.3-0.5,0.5c0.1,0.2,0.3,0.3,1,0.4c0.9,0.1,1.3,0.4,1.4,1
		C17.9,18,17.6,18.6,16.8,18.9"/>
</g>
</svg>
