<?xml version="1.0" encoding="utf-8"?>
<!-- Generator: Adobe Illustrator 21.0.2, SVG Export Plug-In . SVG Version: 6.00 Build 0)  -->
<svg version="1.1" xmlns="http://www.w3.org/2000/svg" xmlns:xlink="http://www.w3.org/1999/xlink" x="0px" y="0px"
	 viewBox="0 0 50 82" style="enable-background:new 0 0 50 82;" xml:space="preserve">
<style type="text/css">
	.st0{fill:#FF0000;stroke:#000000;stroke-width:0.25;stroke-miterlimit:10;}
	.st1{fill:#FFFFFF;}
</style>
<g id="Layer_1">
	<path class="st0" d="M0,24.7C1,11.9,12.9,0.8,25.9,1.5C38.5,1.8,49.4,12.9,50,25.3v2.1c-0.7,6.8-3.8,12.9-6.6,19
		C37.2,58.2,31.3,70.1,25,81.8c-6.4-12-12.5-24.1-18.8-36.1C3.5,39.9,0.8,33.9,0,27.5V24.7z"/>
	<g>
		<g>
			<rect x="8" y="10.9" class="st1" width="34" height="33.4"/>
		</g>
		<path d="M36.6,8.6H13.4c-4.2,0-7.7,3.5-7.7,7.7v23.2c0,4.2,3.5,7.7,7.7,7.7h23.2c4.2,0,7.7-3.5,7.7-7.7V16.3
			C44.3,12.1,40.8,8.6,36.6,8.6z M30.6,30.7c0.3-1.6,0.3-3.1,0.4-4.2c0-1.7,0-2.7,0-2.7l0.1,2.7c0,1.1,0,2.6-0.3,4.2
			c0,0.4,0.1,0.9-0.1,1.6c-0.4,0.1-0.8,0.1-1.3,0.1c0,0,0-0.1,0-0.1C29.8,31.4,30.3,31,30.6,30.7z M30,28.3c0.2-1.5,0.1-2.9,0.1-4
			L30,21.8c0,0,0.1,1,0.2,2.5c0.1,1.1,0.2,2.4,0,3.9c0,0.4,0.2,1,0,2c-0.2,1.1-0.8,1.6-1,1.8c-0.1-0.3-0.4-1-0.1-2.1
			C29.2,28.9,29.7,28.5,30,28.3z M29.2,22.2c0.1,1,0.3,2.3,0.2,3.6c0.1,0.4,0.2,0.9,0.1,1.8c-0.2,1-0.6,1.5-0.8,1.7
			c-0.1-0.3-0.4-0.9-0.3-2c0.1-0.9,0.5-1.3,0.8-1.5C29.4,24.5,29.2,23.2,29.2,22.2l-0.3-2.3C28.9,19.8,29.1,20.7,29.2,22.2z
			 M28.2,20.1c0.2,0.9,0.4,2.1,0.4,3.4c0.1,0.4,0.3,0.9,0.2,1.7c-0.1,0.9-0.5,1.4-0.6,1.7c-0.1-0.2-0.5-0.8-0.4-1.8
			c0.1-0.8,0.4-1.2,0.6-1.5C28.5,22.2,28.3,21,28.2,20.1l-0.4-2.1L28.2,20.1z M27.1,18c0.2,0.8,0.5,1.9,0.6,3.1
			c0.1,0.3,0.3,0.8,0.3,1.5c0,0.9-0.4,1.4-0.4,1.6C27.4,24,27,23.5,27,22.6c0-0.8,0.3-1.2,0.5-1.4C27.4,20,27.2,18.9,27.1,18
			l-0.5-1.9L27.1,18z M24,21.5c0.5,0.7,1.1,1.7,1.8,2.7c0.3,0.1,0.8,0.2,1.3,0.9c0.6,0.8,0.6,1.5,0.6,1.7c-0.2-0.1-0.8-0.4-1.3-1.1
			c-0.5-0.6-0.6-1.1-0.7-1.5C25,23.3,24.4,22.3,24,21.5c-0.7-1-1.2-1.6-1.2-1.6C22.9,19.9,23.4,20.5,24,21.5z M22.4,17.9
			c0,0,0.5,0.5,1.1,1.5c0.5,0.7,1,1.6,1.7,2.5c0.3,0.1,0.8,0.2,1.2,0.8c0.6,0.7,0.5,1.4,0.6,1.6c-0.2-0.1-0.7-0.4-1.3-1
			c-0.5-0.6-0.6-1-0.7-1.3c-0.7-0.9-1.2-1.8-1.6-2.5C22.9,18.5,22.4,17.9,22.4,17.9z M25.8,16.1c0.2,0.7,0.5,1.7,0.7,2.8
			c0.1,0.3,0.3,0.7,0.4,1.4c0.1,0.8-0.2,1.3-0.3,1.5c-0.1-0.2-0.5-0.6-0.5-1.5c0-0.7,0.2-1.1,0.3-1.3C26.3,17.8,26,16.9,25.8,16.1
			c-0.4-1.1-0.6-1.7-0.6-1.7L25.8,16.1z M22.6,13.5c0.2,0.4,1.2,2,2.2,4.1c0.2,0.1,0.6,0.3,0.8,0.9c0.3,0.6,0,1.1,0,1.3
			c-0.2-0.2-0.6-0.4-0.8-0.9c-0.2-0.4-0.1-0.8-0.1-1.1C23.7,15.3,22.6,13.5,22.6,13.5L22.6,13.5z M23,17.3c0.4,0.6,0.9,1.4,1.6,2.3
			c0.3,0.1,0.7,0.2,1.2,0.7c0.5,0.7,0.5,1.3,0.6,1.5c-0.2-0.1-0.7-0.3-1.2-0.9c-0.4-0.5-0.6-0.9-0.7-1.2C23.8,18.8,23.3,18,23,17.3
			c-0.6-0.9-1-1.4-1-1.4C21.9,15.9,22.4,16.4,23,17.3z M22.8,23.9c0.6,0.9,1.3,1.9,1.9,3.2c0.1,0.2,0.3,0.5,0.4,0.7
			c0.5,0.8,1,1.9,1.7,3c0.1-0.2,0.1-0.4,0.2-0.5c-0.2-0.7-0.5-1.3-0.7-1.9c-0.6-1-1.1-1.9-1.5-2.7c-0.7-1.2-1.2-2-1.2-2
			c0,0,0.5,0.7,1.3,1.9c0.1,0.2,0.3,0.5,0.5,0.8c-0.1-0.2-0.2-0.5-0.4-0.7L23.5,23c0,0,0.6,1,1.6,2.7c0.4,0.8,1,1.7,1.4,2.7
			c0.1,0.1,0.2,0.3,0.2,0.4c0.3,0.1,0.7,0.2,1.1,0.6c-0.1-0.2-0.2-0.4-0.3-0.6c-0.2-0.2-0.5-0.4-0.7-0.8c-0.5-0.7-0.6-1.2-0.8-1.6
			c-0.7-1.1-1.3-2.2-1.8-2.9c-0.7-1.2-1.2-1.8-1.2-1.8c0,0,0.5,0.6,1.2,1.8c0.5,0.8,1.1,1.8,1.9,2.9c0.1,0,0.1,0,0.2,0.1
			c-0.6-1.2-0.9-1.9-0.9-1.9l1,1.9c0.3,0.1,0.7,0.3,1.1,0.9c0.6,0.9,0.6,1.6,0.6,1.9c-0.1-0.1-0.2-0.1-0.4-0.3
			c0.2,0.3,0.3,0.7,0.5,1c0.2,0.3,0.3,0.6,0.3,0.8c0.2,0.5,0.3,0.9,0.5,1.4c-0.1,0-0.2,0-0.2,0c-0.1-0.2-0.1-0.4-0.2-0.5
			c0,0,0,0.1,0,0.1c-0.1-0.1-0.5-0.3-1-0.8c0.1,0.2,0.1,0.3,0.2,0.5c0.2,0.2,0.4,0.4,0.6,0.7c0,0,0,0,0,0.1c-0.6,0-1.2,0.1-1.9,0.1
			c-0.1-0.6-0.1-1.1,0-1.5c-0.2-0.3-0.4-0.7-0.6-1c0.3,1.1,0,1.8,0,2.1c-0.2-0.3-1-0.8-1.4-2.1c-0.3-1-0.1-1.7,0-2.1
			C24.2,26.4,23.4,25,22.8,23.9l-1.6-2.4C21.2,21.4,21.9,22.4,22.8,23.9z M19.8,30.2c-1.5-1-2.5-1.6-2.5-1.6
			C17.3,28.6,18.3,29.1,19.8,30.2c1,0.5,2.2,1.4,3.6,2.2c-0.2,0-0.3,0-0.5,0C21.7,31.6,20.6,30.8,19.8,30.2z M21,32.1
			c-0.1,0-0.2,0-0.3-0.1c-1.3-0.9-2.1-1.3-2-1.3C18.6,30.7,19.6,31.1,21,32.1z M21.8,30.4c-1.4-0.9-2.6-1.7-3.6-2.4
			c-1.4-0.9-2.3-1.4-2.3-1.4c0,0,0.9,0.5,2.4,1.3c1,0.6,2.3,1.5,3.7,2.3c0.4-0.1,1.2-0.2,2.1,0.4c1.2,0.7,1.5,1.5,1.7,1.8
			c-0.3-0.1-1.2-0.1-2.3-0.7C22.6,31.3,22.2,30.7,21.8,30.4z M14.4,24.6c0,0,0.9,0.4,2.2,1.2c0.9,0.6,2.1,1.4,3.5,2.1
			c0.4-0.1,1.1-0.2,2,0.3c1.1,0.6,1.5,1.4,1.6,1.6c-0.3-0.1-1.1,0-2.1-0.6c-0.9-0.5-1.3-1-1.6-1.2c-1.4-0.8-2.5-1.6-3.4-2.2
			C15.2,25.1,14.4,24.6,14.4,24.6z M20.5,22.1c0.7,0.9,1.6,2.1,2.3,3.5c0.3,0.4,0.8,0.8,1.1,1.8c0.4,1.1,0.2,1.9,0.2,2.2
			c-0.2-0.2-1-0.7-1.4-1.8c-0.4-0.9-0.2-1.6-0.1-2C22,24.3,21.1,23.1,20.5,22.1l-1.6-2.2L20.5,22.1z M18.1,20.4
			c0.7,0.8,1.6,1.9,2.3,3.1c0.3,0.3,0.8,0.7,1.2,1.6c0.5,1,0.3,1.7,0.4,2c-0.2-0.2-0.9-0.6-1.4-1.6c-0.4-0.8-0.3-1.4-0.2-1.8
			C19.6,22.4,18.7,21.3,18.1,20.4l-1.6-1.9L18.1,20.4z M15.6,18.8c0.7,0.7,1.5,1.6,2.3,2.7c0.3,0.3,0.7,0.6,1.2,1.4
			c0.5,0.9,0.4,1.5,0.5,1.8c-0.2-0.2-0.9-0.5-1.4-1.4c-0.4-0.7-0.4-1.3-0.3-1.6C17.1,20.6,16.2,19.6,15.6,18.8c-1-1-1.6-1.6-1.6-1.6
			L15.6,18.8z M10.6,17.6c0.5,0.3,2.5,1.6,4.8,3.5c0.3,0,0.8,0.1,1.4,0.5c0.6,0.6,0.6,1.2,0.7,1.4C17.1,23,16.6,23,16,22.5
			c-0.5-0.4-0.6-0.9-0.7-1.1c-2.6-2.3-4.8-3.7-4.8-3.8L10.6,17.6z M13.1,21.7c0.8,0.5,1.8,1.1,3,1.7c0.3-0.1,0.9-0.2,1.7,0.2
			c1,0.5,1.3,1.1,1.4,1.3c-0.2,0-1,0-1.8-0.4c-0.8-0.4-1.1-0.8-1.4-1C14.8,22.9,13.8,22.2,13.1,21.7c-1.2-0.6-1.9-1-1.9-1
			C11.2,20.7,11.9,21,13.1,21.7z M12.8,22.6c0,0,0.8,0.4,2.1,1.1c0.9,0.5,2,1.2,3.3,1.9c0.4-0.1,1-0.2,1.9,0.2
			c1,0.5,1.4,1.3,1.5,1.5c-0.3,0-1,0-2-0.5c-0.8-0.4-1.2-0.9-1.5-1.1c-1.3-0.7-2.3-1.4-3.2-2C13.6,23.1,12.8,22.6,12.8,22.6z
			 M39.5,30.4c-0.1,2.1-0.8,4.5-1.9,6.6c0,0-2.7,5.4-11,5.4c-8.4,0-11.1-5.4-11.1-5.4c-1.1-2.1-1.8-4.4-1.9-6.6h0c0-0.1,0-0.1,0-0.2
			c0-1,0.6-2,1.7-2.8l1.2,0.7c-0.7,0.5-1.1,1-1.1,1.6c0,2,5,3.7,11.2,3.7c6.2,0,11.2-1.6,11.2-3.7c0-1.4-2.4-2.6-5.9-3.2l0-1.5
			c4.5,0.9,7.7,2.9,7.7,5.2C39.5,30.3,39.5,30.3,39.5,30.4L39.5,30.4L39.5,30.4z"/>
	</g>
</g>
<g id="Layer_3">
	<g id="Layer_4">
	</g>
</g>
<g id="Layer_2">
</g>
</svg>
