<?xml version="1.0" encoding="utf-8"?>
<!-- Generator: Adobe Illustrator 21.0.2, SVG Export Plug-In . SVG Version: 6.00 Build 0)  -->
<svg version="1.1" xmlns="http://www.w3.org/2000/svg" xmlns:xlink="http://www.w3.org/1999/xlink" x="0px" y="0px"
	 viewBox="0 0 50 82" style="enable-background:new 0 0 50 82;" xml:space="preserve">
<style type="text/css">
	.st0{fill:#5B9BD5;stroke:#000000;stroke-width:0.25;stroke-miterlimit:10;}
	.st1{fill:#FFFFFF;}
</style>
<g id="Layer_1">
	<path class="st0" d="M0,24.7C1,11.9,12.9,0.8,25.9,1.5C38.5,1.8,49.4,12.9,50,25.3v2.1c-0.7,6.8-3.8,12.9-6.6,19
		C37.2,58.2,31.3,70.1,25,81.8c-6.4-12-12.5-24.1-18.8-36.1C3.5,39.9,0.8,33.9,0,27.5V24.7z"/>
	<g>
		<path d="M39.2,46.7H10.9c-2.2,0-4-1.8-4-4V14.3c0-2.2,1.8-4,4-4h28.3c2.2,0,4,1.8,4,4v28.3C43.2,44.9,41.4,46.7,39.2,46.7z"/>
		<g>
			<path class="st1" d="M21.1,18.2c1.7,0,3.4,0,5.2,0c0.2,0,0.4,0.1,0.6,0.2c1.3,1.2,2.3,2.6,2.9,4.3c0.1,0.2,0,0.4-0.1,0.5
				c-1.4,1.7-2.3,3.7-2.8,5.8c0,0.2-0.1,0.3-0.4,0.3c-1.7,0.1-3.3,0.4-4.9,0.9c-1.4,0.4-2.6,1-3.6,2.1c-0.1,0.1-0.2,0.2-0.3,0.2
				c-1.1,0-2.2,0.1-3.3-0.1c-1.5-0.2-2.3-1.2-2.6-2.9c-0.5-3.1-0.1-6,1.6-8.7c0.5-0.9,1.3-1.6,1.9-2.4c0.1-0.1,0.4-0.2,0.6-0.2
				C17.6,18.2,19.4,18.2,21.1,18.2z M23.6,23.5C23.6,23.5,23.6,23.5,23.6,23.5c0-0.1,0-0.2,0-0.3c-0.2-0.8-0.9-1.2-1.7-1.4
				c-0.2-0.1-0.4-0.3-0.6-0.4c0,0,0-0.1,0.1-0.1c-0.3,0-0.6,0-0.9,0c0,0,0,0.1,0.1,0.1c-0.2,0.1-0.3,0.3-0.5,0.4
				c-0.2,0.1-0.4,0.2-0.7,0.3c-1.3,0.7-1.4,2.5-0.2,3.3c0.3,0.2,0.6,0.3,0.9,0.5c0.1,0.1,0.2,0.2,0.2,0.3c0,0.6,0,1.1,0,1.7
				c-0.4-0.1-0.6-0.3-0.7-0.7c-0.1-0.2-0.1-0.4-0.4-0.3C19,27,18.6,27,18.1,27.1c0.3,1.3,1.1,1.9,2.4,2.1v0.9h0.9c0-0.2,0-0.3,0-0.5
				c0-0.3,0.1-0.5,0.4-0.5c0.3-0.1,0.6-0.2,0.8-0.3c0.7-0.4,1.2-1,1.2-1.9c-0.1-0.8-0.5-1.4-1.3-1.7c-0.3-0.1-0.6-0.2-0.9-0.4
				c-0.1,0-0.2-0.1-0.2-0.2c0-0.5,0-1.1,0-1.6c0.1,0,0.1,0,0.1,0C22.1,23.7,22.8,23.7,23.6,23.5z"/>
			<path class="st1" d="M26.5,30.9c-0.1,0.3-0.1,0.6-0.1,0.9c-0.7,0.1-1.3,0.2-2,0.3c-1.1,0.2-2.2,0.5-3.2,1
				c-0.3,0.2-0.6,0.4-0.9,0.6c-0.7,0.6-0.7,1.4,0,2.1c0.6,0.6,1.4,1,2.3,1.2c1.3,0.3,2.5,0.6,3.8,0.7c2.4,0.2,4.8,0.1,7.1-0.5
				c0.8-0.2,1.6-0.6,2.4-0.9c0.2-0.1,0.3-0.2,0.4-0.3c1-0.8,1.1-1.8,0-2.6c-0.3-0.2-0.7-0.4-1-0.6c0.2-0.3,0.3-0.6,0.5-1
				c1.6,0.6,2.8,2.1,2.9,3.7c0.2,2.5-0.8,4.5-2.4,6.2c-1.8,2-4,3.1-6.6,3.5c-2.2,0.3-4.3-0.2-6.3-1.2c-1.9-1-3.4-2.5-4.4-4.4
				c-0.5-1-0.8-2.1-0.9-3.2c-0.1-2,0.8-3.4,2.6-4.3c1.5-0.7,3-1,4.6-1.1C25.6,30.9,26,30.9,26.5,30.9z"/>
			<path class="st1" d="M28.6,13.9c-0.8,0.7-1.5,1.4-2.2,2.1c-0.3,0.3-0.7,0.5-1.2,0.5c-2.8,0-5.7,0-8.5,0c-0.2,0-0.5-0.1-0.6-0.2
				c-0.8-0.8-1.6-1.5-2.4-2.3c0.8-1.3,2.9-2.3,4.3-2c0.6,0.1,1.2,0.3,1.8,0.6c1,0.6,1.8,0.5,2.8,0c2.2-1.3,4.5-0.5,6,1.2
				C28.5,13.8,28.5,13.8,28.6,13.9z"/>
			<path class="st1" d="M28.1,28.3c-0.2,1,0.1,1.8,0.6,2.6c0.3,0.4,0.5,0.8,0.7,1.2c0.2,0.5,0,1-0.4,1.2c-0.5,0.3-1,0.1-1.3-0.3
				c-0.2-0.3-0.4-0.6-0.4-1C27.1,30.7,27.4,29.5,28.1,28.3z"/>
			<path class="st1" d="M36.6,26.4c-0.5,0.9-1.2,1.8-2.1,2.4c-0.4,0.3-0.8,0.5-1.3,0.4c-0.5,0-0.8-0.3-0.9-0.7
				c-0.1-0.4,0-0.9,0.5-1.1c0.4-0.2,0.8-0.2,1.2-0.3c0.5-0.1,1,0,1.5-0.2C35.9,26.9,36.2,26.6,36.6,26.4z"/>
			<path class="st1" d="M30.6,23.3c-0.1,0.9,0.3,1.5,0.8,2.2c0.3,0.4,0.5,0.8,0.7,1.2c0.2,0.6,0,1.1-0.5,1.3c-0.5,0.2-1,0.1-1.3-0.5
				c-0.2-0.3-0.3-0.6-0.3-0.9C29.8,25.4,30.1,24.3,30.6,23.3z"/>
			<path class="st1" d="M35.3,29C34.7,30,34,31,33,31.6c-0.3,0.2-0.6,0.3-0.9,0.3c-0.5,0-0.9-0.2-1-0.6c-0.1-0.4,0-0.9,0.4-1.2
				c0.3-0.2,0.7-0.3,1-0.3c0.2,0,0.5,0,0.7,0C33.9,29.8,34.7,29.6,35.3,29z"/>
			<path class="st1" d="M34.1,31.6c-0.6,1.1-1.4,2.1-2.5,2.7c-0.5,0.2-1,0.3-1.5,0.1c-0.3-0.1-0.5-0.4-0.5-0.7
				c0-0.3,0.1-0.6,0.4-0.8c0.4-0.3,1-0.3,1.5-0.3c0.8,0,1.5-0.1,2.2-0.6C33.8,31.8,33.9,31.7,34.1,31.6z"/>
			<path class="st1" d="M34.8,22.5c0,1.1-0.1,2.1-0.4,3.1c-0.1,0.2-0.2,0.4-0.3,0.6c-0.3,0.5-0.7,0.6-1.2,0.3
				c-0.5-0.2-0.7-0.6-0.5-1.1c0.1-0.3,0.2-0.6,0.4-0.8C33.3,23.8,34,23.2,34.8,22.5z"/>
			<path class="st1" d="M29.3,25.9c-0.1,1,0.3,1.8,0.9,2.5c0.3,0.4,0.6,0.9,0.5,1.5c0,0.3-0.2,0.7-0.5,0.8c-0.2,0.1-0.5,0-0.8-0.1
				c-0.5-0.3-0.7-0.8-0.8-1.3C28.5,28.1,28.8,27,29.3,25.9z"/>
			<path class="st1" d="M28.2,34c0.4,0.2,0.7,0.4,1.1,0.6c-0.4,0.8-0.9,1.6-1.4,2.3c0,0.1-0.3,0.1-0.4,0c-0.2-0.1-0.5-0.3-0.3-0.6
				C27.6,35.6,27.9,34.8,28.2,34z"/>
			<path d="M23.6,23.5c-0.8,0.1-1.5,0.2-2-0.7c-0.1,0-0.1,0-0.1,0c0,0.5,0,1.1,0,1.6c0,0.1,0.1,0.2,0.2,0.2c0.3,0.1,0.6,0.2,0.9,0.4
				c0.7,0.3,1.2,0.8,1.3,1.7c0.1,0.9-0.4,1.5-1.2,1.9c-0.3,0.1-0.5,0.3-0.8,0.3c-0.3,0.1-0.4,0.2-0.4,0.5c0,0.2,0,0.3,0,0.5h-0.9
				v-0.9c-1.3-0.2-2.1-0.9-2.4-2.1c0.4-0.1,0.8-0.1,1.3-0.2c0.3,0,0.3,0.1,0.4,0.3c0.1,0.3,0.3,0.6,0.7,0.7c0-0.6,0-1.2,0-1.7
				c0-0.1-0.1-0.2-0.2-0.3c-0.3-0.2-0.6-0.3-0.9-0.5c-1.2-0.8-1.1-2.6,0.2-3.3c0.2-0.1,0.4-0.2,0.7-0.3c0.2-0.1,0.3-0.2,0.5-0.4
				c0,0,0-0.1-0.1-0.1c0.3,0,0.6,0,0.9,0c0,0,0,0.1-0.1,0.1c0.2,0.1,0.4,0.3,0.6,0.4c0.8,0.2,1.4,0.6,1.7,1.4
				C23.6,23.3,23.6,23.4,23.6,23.5C23.6,23.5,23.6,23.5,23.6,23.5z M21.5,28.2c0.7,0,0.8-0.2,0.9-0.8c0-0.6-0.2-0.8-0.9-0.9
				C21.5,27,21.5,27.6,21.5,28.2z M20.5,24.7c0-0.6,0-1.1,0-1.6c-0.4,0.1-0.6,0.4-0.7,0.8C19.8,24.3,20.2,24.5,20.5,24.7z"/>
			<path class="st1" d="M21.5,28.2c0-0.6,0-1.1,0-1.7c0.7,0.1,0.9,0.4,0.9,0.9C22.3,28,22.1,28.1,21.5,28.2z"/>
			<path class="st1" d="M20.5,24.7c-0.3-0.2-0.7-0.4-0.7-0.8c0-0.4,0.2-0.7,0.7-0.8C20.5,23.6,20.5,24.1,20.5,24.7z"/>
		</g>
	</g>
</g>
<g id="Layer_3">
	<g id="Layer_4">
	</g>
</g>
<g id="Layer_2">
</g>
</svg>
