<?xml version="1.0" encoding="utf-8"?>
<!-- Generator: Adobe Illustrator 21.0.2, SVG Export Plug-In . SVG Version: 6.00 Build 0)  -->
<svg version="1.1" xmlns="http://www.w3.org/2000/svg" xmlns:xlink="http://www.w3.org/1999/xlink" x="0px" y="0px"
	 viewBox="0 0 50 82" style="enable-background:new 0 0 50 82;" xml:space="preserve">
<style type="text/css">
	.st0{fill:#FFFF00;stroke:#000000;stroke-width:0.25;stroke-miterlimit:10;}
	.st1{fill:#FFFFFF;}
</style>
<g id="Layer_1">
	<path class="st0" d="M0,24.7C1,11.9,12.9,0.8,25.9,1.5C38.5,1.8,49.4,12.9,50,25.3v2.1c-0.7,6.8-3.8,12.9-6.6,19
		C37.2,58.2,31.3,70.1,25,81.8c-6.4-12-12.5-24.1-18.8-36.1C3.5,39.9,0.8,33.9,0,27.5V24.7z"/>
	<g>
		<path d="M37.1,43.5H11.5c-3.3,0-6-2.7-6-6V15.7c0-3.3,2.7-6,6-6h25.7c3.3,0,6,2.7,6,6v21.8C43.1,40.8,40.5,43.5,37.1,43.5z"/>
		<path class="st1" d="M26.2,27.3c-1.2-1.3-2.3-2.4-3.4-3.6c4.4-5.9,4-6.9-4.1-9.9c2-1.2,4-0.6,5.8,0c3.8,1.2,7.1,3.1,8.9,7
			c0.5,1.1,1.3,2.2,2,3.2c0.3-0.2,0.6-0.4,0.8-0.6c-1.4,1.2-2.8,3.1-4.2,4.3C30.3,26,29.4,25.2,26.2,27.3z"/>
		<path class="st1" d="M21.6,25c1.3,1.2,2.2,2,3.2,2.9c-3.5,3.4-6.8,6.7-10.2,10c-1,1-1.8,0.2-2.4-0.4c-0.6-0.6-1.5-1.3-0.5-2.4
			C15.1,31.8,18.4,28.4,21.6,25z"/>
		<path class="st1" d="M33,29.1c1.8-1.8,3.4-3.4,5.2-5.2c1.1,0.6,1.2,1.3,0.3,2.1c-1.1,1.1-2.2,2.2-3.3,3.3
			C34.2,30.2,34.2,30.2,33,29.1z"/>
	</g>
</g>
<g id="Layer_3">
	<g id="Layer_4">
	</g>
</g>
<g id="Layer_2">
</g>
</svg>
