<?xml version="1.0" encoding="utf-8"?>
<!-- Generator: Adobe Illustrator 21.0.2, SVG Export Plug-In . SVG Version: 6.00 Build 0)  -->
<svg version="1.1" id="Layer_1" xmlns="http://www.w3.org/2000/svg" xmlns:xlink="http://www.w3.org/1999/xlink" x="0px" y="0px"
	 viewBox="0 0 32.7 54.2" style="enable-background:new 0 0 32.7 54.2;" xml:space="preserve">
<style type="text/css">
	.st0{fill:#1F9606;stroke:#000000;stroke-miterlimit:10;}
	.st1{fill:#FFFFFF;}
</style>
<path id="svg_2" class="st0" d="M16.4,50.8c-1.1-5.6-3.2-10.3-5.6-14.6C8.9,33,6.8,30,4.9,26.9c-0.6-1-1.2-2.1-1.8-3.2
	c-1.2-2.2-2.3-4.7-2.2-7.9c0.1-3.2,1-5.7,2.3-7.8C5.4,4.5,9,1.7,13.9,1c4-0.6,7.7,0.4,10.4,2c2.2,1.3,3.9,3,5.1,5
	c1.3,2.1,2.3,4.6,2.3,7.8c0,1.6-0.2,3.2-0.6,4.4c-0.4,1.3-1,2.4-1.6,3.5c-1.1,2.2-2.4,4.3-3.8,6.3C21.8,36.1,18,42.3,16.4,50.8z"/>
<path class="st1" d="M17.5,3.7c-5.3,0-9.7,4.3-9.7,9.7c0,5.3,4.3,9.7,9.7,9.7s9.7-4.3,9.7-9.7C27.2,8.1,22.9,3.7,17.5,3.7z
	 M13.5,14.7c0-0.6,0.5-1.2,1.2-1.2c0.6,0,1.2,0.5,1.2,1.2c0,0.6-0.5,1.2-1.2,1.2C14.1,15.8,13.5,15.3,13.5,14.7z M17.4,21.6
	c-1.6,0-3-0.7-3-1.6h5.9C20.4,20.9,19,21.6,17.4,21.6z M20.3,15.8c-0.6,0-1.2-0.5-1.2-1.2c0-0.6,0.5-1.2,1.2-1.2
	c0.6,0,1.2,0.5,1.2,1.2C21.5,15.3,21,15.8,20.3,15.8z M24.7,27.8c0,1.3-2.2,2.3-4.9,2.3c-2.7,0-4.3-1.2-4.9-2.3c-0.6-1.1,0,0,0,0
	c-0.8-1-1.6-1.7-2.4-2.2c-0.5,0.9-1.9,1.3-3.3,0.9c-1.6-0.5-2.7-1.7-2.4-2.8c0,0,0-0.1,0.1-0.1c-0.9-0.2-2-0.5-3.2-0.8
	c-0.2,0-0.3-0.2-0.2-0.4c0-0.2,0.2-0.3,0.4-0.2c2.6,0.7,1.8,0.5,3.4,1c0.6-0.6,1.8-0.9,3.1-0.5c1.5,0.4,2.6,1.6,2.4,2.6
	c1.2,0.6,2.1,1.3,2.7,2.1c0,0,0,0,0,0c0,0,0,0,0,0c0.2,0.1,2,1.2,4.5,1.2C22.5,28.6,24.7,27.8,24.7,27.8z M18.3,28.2
	C18.3,28.2,18.2,28.2,18.3,28.2c-0.1,0.1-0.1,0.1-0.1,0c0.1-0.1,0.2-0.3-0.1-0.4c0.1,0.1,0.3,0,0.5,0.1c0.1,0,0.1,0.2,0.3,0.2
	C18.6,28.1,18.5,28.1,18.3,28.2z M19.7,27.8c-0.3-0.1-0.3-0.5-0.2-0.7c-0.1,0-0.1,0-0.2,0c0,0.1,0,0.3-0.1,0.4
	c0,0.1,0.2,0.1,0.2,0.2c-0.1,0.2-0.3,0.3-0.5,0.3c0.1,0,0.2,0.1,0.2,0.2c0,0,0.1,0,0.1,0C19.3,28.2,19.5,27.9,19.7,27.8z M20.4,28.1
	c0.1-0.1,0.1-0.2,0.1-0.3l0,0c-0.1,0-0.3-0.1-0.3-0.2c0,0.1-0.1,0.1-0.1,0.2C20.3,27.8,20.5,28,20.4,28.1c0,0.1,0.1,0.2,0.1,0.3
	c0,0,0,0,0,0C20.5,28.3,20.4,28.2,20.4,28.1z M17.7,27.4c-0.6-0.2,0.3-0.6,0.5-0.7c0.2-0.1,0.4,0,0.4,0.2c0,0.2-0.4,0.4-0.6,0.4
	c0.3,0.1,0.2-0.1,0.4-0.2c0.1-0.1,0.3-0.1,0.4-0.2c0.1,0,0-0.1,0.1-0.2c0.2-0.3,1.2-0.2,1.1,0.2c0.1,0,0.2,0,0.3,0
	c-0.2-0.4,0.5-0.4,0.7-0.3c0.4,0.1,0.3,0.4,0,0.3c0,0.1,0,0.1,0,0.1c0.3-0.1,0.6-0.3,0.8-0.1c0.1,0.1,0.2,0.3,0.1,0.4
	c0,0,0.1,0,0.1,0c-0.2-0.4,0.5-0.4,0.6,0c0.5-0.4,0.5,0.5,0.5,0.5c0,0,0.1,0.1,0.1,0c0,0,0,0,0,0.1c0.9-0.2,1.4-0.4,1.4-0.4
	c-0.6-0.6-2.2-1.5-4.9-1.5c-2.1,0-3.7,0.5-4.5,1c0.1,0.1,0.4,0.3,1,0.5c0.3-0.1,0.6-0.1,0.7-0.1c0.1-0.8,1.1,0.3,0.5,0.2
	c0.1,0.1,0.1,0.3,0,0.3c0,0,0.1,0,0.1,0c0.1-0.1,0.2-0.1,0.3-0.2C17.4,27.8,17.7,27.5,17.7,27.4z M22.5,27.6c0,0.1,0,0.2,0.1,0.3
	c0.1,0,0.1,0,0.2,0c0,0-0.1-0.1-0.1-0.1C22.6,27.8,22.5,27.7,22.5,27.6z M21.7,27.9c-0.3-0.1,0.1-0.5,0.1-0.4c0,0-0.5,0.2-0.6,0.2
	c0.2,0,0.4,0.1,0.4,0.3c0.2-0.1,0.3,0.1,0.3,0.3c0,0,0,0,0,0C21.9,28.1,21.9,28,21.7,27.9z"/>
</svg>
