<?xml version="1.0" encoding="utf-8"?>
<!-- Generator: Adobe Illustrator 21.0.2, SVG Export Plug-In . SVG Version: 6.00 Build 0)  -->
<svg version="1.1" id="Layer_1" xmlns="http://www.w3.org/2000/svg" xmlns:xlink="http://www.w3.org/1999/xlink" x="0px" y="0px"
	 viewBox="0 0 32.9 53.9" style="enable-background:new 0 0 32.9 53.9;" xml:space="preserve">
<style type="text/css">
	.st0{fill:#FF002B;stroke:#000000;stroke-miterlimit:10;}
	.st1{fill:#FFFFFF;}
</style>
<path id="svg_2" class="st0" d="M16.5,50.9c-1.1-5.6-3.2-10.3-5.6-14.6C9,33.1,6.9,30.1,5,27c-0.6-1-1.2-2.1-1.8-3.2
	c-1.2-2.2-2.3-4.7-2.2-7.9c0.1-3.2,1-5.7,2.3-7.8c2.2-3.4,5.8-6.2,10.7-7c4-0.6,7.7,0.4,10.4,2c2.2,1.3,3.9,3,5.1,5
	c1.3,2.1,2.3,4.6,2.3,7.8c0,1.6-0.2,3.2-0.6,4.4c-0.4,1.3-1,2.4-1.6,3.5c-1.1,2.2-2.4,4.3-3.8,6.3C21.9,36.2,18.1,42.4,16.5,50.9z"
	/>
<path class="st1" d="M17.6,3.8c-5.3,0-9.7,4.3-9.7,9.7c0,5.3,4.3,9.7,9.7,9.7s9.7-4.3,9.7-9.7C27.3,8.2,23,3.8,17.6,3.8z M13.7,14.8
	c0-0.6,0.5-1.2,1.2-1.2c0.6,0,1.2,0.5,1.2,1.2c0,0.6-0.5,1.2-1.2,1.2C14.2,15.9,13.7,15.4,13.7,14.8z M17.5,21.7c-1.6,0-3-0.7-3-1.6
	h5.9C20.5,21,19.1,21.7,17.5,21.7z M20.4,15.9c-0.6,0-1.2-0.5-1.2-1.2c0-0.6,0.5-1.2,1.2-1.2c0.6,0,1.2,0.5,1.2,1.2
	C21.6,15.4,21.1,15.9,20.4,15.9z M24.8,27.9c0,1.3-2.2,2.3-4.9,2.3c-2.7,0-4.3-1.2-4.9-2.3c-0.6-1.1,0,0,0,0c-0.8-1-1.6-1.7-2.4-2.2
	c-0.5,0.9-1.9,1.3-3.3,0.9c-1.6-0.5-2.7-1.7-2.4-2.8c0,0,0-0.1,0.1-0.1c-0.9-0.2-2-0.5-3.2-0.8c-0.2,0-0.3-0.2-0.2-0.4
	c0-0.2,0.2-0.3,0.4-0.2c2.6,0.7,1.8,0.5,3.4,1c0.6-0.6,1.8-0.9,3.1-0.5c1.5,0.4,2.6,1.6,2.4,2.6c1.2,0.6,2.1,1.3,2.7,2.1
	c0,0,0,0,0,0c0,0,0,0,0,0c0.2,0.1,2,1.2,4.5,1.2C22.6,28.7,24.8,27.9,24.8,27.9z M18.4,28.3C18.4,28.3,18.3,28.3,18.4,28.3
	c-0.1,0.1-0.1,0.1-0.1,0c0.1-0.1,0.2-0.3-0.1-0.4c0.1,0.1,0.3,0,0.5,0.1c0.1,0,0.1,0.2,0.3,0.2C18.8,28.2,18.6,28.2,18.4,28.3z
	 M19.8,27.9c-0.3-0.1-0.3-0.5-0.2-0.7c-0.1,0-0.1,0-0.2,0c0,0.1,0,0.3-0.1,0.4c0,0.1,0.2,0.1,0.2,0.2c-0.1,0.2-0.3,0.3-0.5,0.3
	c0.1,0,0.2,0.1,0.2,0.2c0,0,0.1,0,0.1,0C19.4,28.3,19.6,28,19.8,27.9z M20.5,28.2c0.1-0.1,0.1-0.2,0.1-0.3l0,0
	c-0.1,0-0.3-0.1-0.3-0.2c0,0.1-0.1,0.1-0.1,0.2C20.5,27.9,20.6,28.1,20.5,28.2c0,0.1,0.1,0.2,0.1,0.3c0,0,0,0,0,0
	C20.6,28.4,20.6,28.3,20.5,28.2z M17.9,27.5c-0.6-0.2,0.3-0.6,0.5-0.7c0.2-0.1,0.4,0,0.4,0.2c0,0.2-0.4,0.4-0.6,0.4
	c0.3,0.1,0.2-0.1,0.4-0.2c0.1-0.1,0.3-0.1,0.4-0.2c0.1,0,0-0.1,0.1-0.2c0.2-0.3,1.2-0.2,1.1,0.2c0.1,0,0.2,0,0.3,0
	c-0.2-0.4,0.5-0.4,0.7-0.3c0.4,0.1,0.3,0.4,0,0.3c0,0.1,0,0.1,0,0.1c0.3-0.1,0.6-0.3,0.8-0.1c0.1,0.1,0.2,0.3,0.1,0.4
	c0,0,0.1,0,0.1,0c-0.2-0.4,0.5-0.4,0.6,0c0.5-0.4,0.5,0.5,0.5,0.5c0,0,0.1,0.1,0.1,0c0,0,0,0,0,0.1c0.9-0.2,1.4-0.4,1.4-0.4
	c-0.6-0.6-2.2-1.5-4.9-1.5c-2.1,0-3.7,0.5-4.5,1c0.1,0.1,0.4,0.3,1,0.5c0.3-0.1,0.6-0.1,0.7-0.1c0.1-0.8,1.1,0.3,0.5,0.2
	c0.1,0.1,0.1,0.3,0,0.3c0,0,0.1,0,0.1,0c0.1-0.1,0.2-0.1,0.3-0.2C17.5,27.9,17.8,27.6,17.9,27.5z M22.6,27.7c0,0.1,0,0.2,0.1,0.3
	c0.1,0,0.1,0,0.2,0c0,0-0.1-0.1-0.1-0.1C22.8,27.9,22.6,27.8,22.6,27.7z M21.8,28c-0.3-0.1,0.1-0.5,0.1-0.4c0,0-0.5,0.2-0.6,0.2
	c0.2,0,0.4,0.1,0.4,0.3c0.2-0.1,0.3,0.1,0.3,0.3c0,0,0,0,0,0C22,28.2,22,28.1,21.8,28z"/>
</svg>
