<?xml version="1.0" encoding="utf-8"?>
<!-- Generator: Adobe Illustrator 21.0.2, SVG Export Plug-In . SVG Version: 6.00 Build 0)  -->
<svg version="1.1" xmlns="http://www.w3.org/2000/svg" xmlns:xlink="http://www.w3.org/1999/xlink" x="0px" y="0px"
	 viewBox="0 0 50 82" style="enable-background:new 0 0 50 82;" xml:space="preserve">
<style type="text/css">
	.st0{fill:#FFFF00;stroke:#000000;stroke-width:0.25;stroke-miterlimit:10;}
	.st1{fill:#FFFFFF;}
</style>
<g id="Layer_1">
	<path class="st0" d="M0,24.7C1,11.9,12.9,0.8,25.9,1.5C38.5,1.8,49.4,12.9,50,25.3v2.1c-0.7,6.8-3.8,12.9-6.6,19
		C37.2,58.2,31.3,70.1,25,81.8c-6.4-12-12.5-24.1-18.8-36.1C3.5,39.9,0.8,33.9,0,27.5V24.7z"/>
	<g>
		<path d="M37.3,47H11.7c-3.3,0-6-2.7-6-6V15.5c0-3.3,2.7-6,6-6h25.6c3.3,0,6,2.7,6,6V41C43.3,44.3,40.6,47,37.3,47z"/>
		<g>
			<g>
				<path class="st1" d="M20.4,41.2c-1.8,0-3.5,0-5.3,0c0-1.1,0-2.2,0-3.2c0-0.5-0.1-0.8-0.4-1.2c-1.7-2.2-3.3-4.3-5-6.5
					c-0.3-0.4-0.5-0.8-0.5-1.4c0-3.5,0-7.1,0-10.6c0-1.4,1.2-2.2,2.3-1.5c0.5,0.3,0.8,0.7,0.8,1.2c0,2.1,0,4.3,0,6.4
					c-0.7,0.3-1.3,0.7-1.6,1.4c-0.3,0.8-0.1,1.5,0.4,2.1c1,1,2.1,2,3.2,3.1c0-0.1,0.1-0.2,0.3-0.3c-1-1-1.9-2-2.8-3
					c-0.6-0.7-0.7-1.6-0.1-2.2c0.6-0.7,1.5-0.7,2.2,0c1.6,1.6,3.1,3.2,4.7,4.8c0.5,0.5,1.1,1.1,1.6,1.6c0.1,0.1,0.2,0.4,0.3,0.5
					c0,2.8,0,5.7,0,8.5C20.4,41,20.4,41.1,20.4,41.2z"/>
				<path class="st1" d="M32.1,30.6c0.3,0.4,0.5,0.4,0.8,0.1c0.8-0.8,1.6-1.6,2.4-2.4c1.2-1.2,1.1-2.8-0.5-3.7
					c-0.3-0.2-0.4-0.4-0.4-0.7c0-1.9,0-3.7,0-5.6c0-1,0.3-1.5,1-1.7c1.1-0.3,2.1,0.3,2.1,1.5c0,3.7,0,7.3,0,11
					c0,0.3-0.2,0.6-0.4,0.9c-0.8,1.1-1.7,2.2-2.5,3.4c-0.9,1.2-1.8,2.4-2.7,3.6c-0.2,0.2-0.3,0.5-0.3,0.8c0,1.1,0,2.3,0,3.4
					c-1.8,0-3.5,0-5.3,0c0-0.2,0-0.3,0-0.5c0-2.7,0-5.5,0-8.2c0-0.2,0.1-0.5,0.3-0.7c1.9-2,3.9-4,5.8-6c0.2-0.3,0.5-0.6,0.8-0.7
					c0.7-0.3,1.5-0.1,1.9,0.5c0.4,0.6,0.3,1.3-0.2,1.9c-0.8,0.9-1.7,1.8-2.6,2.7C32.4,30.4,32.2,30.5,32.1,30.6z"/>
				<path class="st1" d="M17.3,21.7c0-4.1,3.2-6.1,6.1-6.1c3.4,0,6.1,2.8,6.1,6.1c0,3.4-2.7,6.1-6.1,6.1
					C20.5,27.8,17.3,25.8,17.3,21.7z"/>
			</g>
		</g>
	</g>
</g>
<g id="Layer_3">
	<g id="Layer_4">
	</g>
</g>
<g id="Layer_2">
</g>
</svg>
