<?xml version="1.0" encoding="utf-8"?>
<!-- Generator: Adobe Illustrator 21.0.2, SVG Export Plug-In . SVG Version: 6.00 Build 0)  -->
<svg version="1.1" id="Layer_1" xmlns="http://www.w3.org/2000/svg" xmlns:xlink="http://www.w3.org/1999/xlink" x="0px" y="0px"
	 viewBox="0 0 50 82" style="enable-background:new 0 0 50 82;" xml:space="preserve">
<style type="text/css">
	.st0{fill:#FFFF00;stroke:#000000;stroke-width:0.25;stroke-miterlimit:10;}
</style>
<path class="st0" d="M0,24.7C1,11.9,12.9,0.8,25.9,1.5C38.5,1.8,49.4,12.9,50,25.3v2.1c-0.7,6.8-3.8,12.9-6.6,19
	C37.2,58.2,31.3,70.1,25,81.8c-6.4-12-12.5-24.1-18.8-36.1C3.5,39.9,0.8,33.9,0,27.5V24.7z"/>
<g>
	<g>
		<path d="M39.4,12.6c1,1,1.6,2.4,2.3,3.6v23.1c-0.5,0.9-1.5,2.4-2,3.1c-0.2,0.3-0.5,0.6-0.8,0.8c-0.8,0.5-2.2,1.4-3.1,1.9
			c-0.1,0-0.1,0-0.2,0l-23,0C11.4,44.5,10,44,9,43c-1-1-1.6-2.4-2.3-3.6c0-7.7,0-15.4,0-23.1c0.8-1.3,1.4-2.7,2.4-3.8
			c0.9-1,2.3-1.5,3.5-2.2c7.7,0,15.4,0,23.1,0C37,11,38.4,11.6,39.4,12.6 M37.6,28c0-2.3,0.1-4.7-0.1-7c0-0.6-0.6-1.5-1.2-1.7
			c-3.6-1.5-7.1-1.3-10.6,0.3c-0.9,0.4-1.6,0.6-2.6,0c-3.5-1.9-7.1-1.8-10.8-0.6c-1.1,0.4-1.5,1-1.5,2.2c0.1,4.5,0.1,9.1,0,13.6
			c0,1.5,0.6,1.8,2,1.8c3.6,0.1,7.2,0.4,10.7,0.6c0.6,0,1.3,0,1.9-0.1c1.4-0.2,2.8-0.5,4.3-0.5c2-0.1,4-0.1,5.9,0
			c1.5,0.1,2.1-0.3,2-1.9C37.5,32.5,37.6,30.2,37.6,28z"/>
		<g>
			<path d="M39.4,12.6c1,1,1.6,2.4,2.3,3.6l0,0l0,0c0.1,7.7,0.1,15.4,0.1,23.1l0,0l0,0c-0.7,1.1-1.4,2.2-2.1,3.4
				c-0.4,0.6-1.1,0.9-1.6,1.2l-1.7,1.1L36,45.3c0,0-0.2,0.1-0.3,0.1c-0.1,0-0.2,0-0.3,0l-1,0l-2,0l-4,0l-15.9,0l-0.1,0l-0.1,0
				c-1.2-0.7-2.6-1.3-3.7-2.3c-1.1-1.1-1.6-2.5-2.3-3.7l0-0.1l0-0.1l0.1-23.1l0-0.1l0,0c0.8-1.2,1.3-2.6,2.3-3.7
				c1-1.1,2.5-1.6,3.7-2.3l0,0l0,0c7.7,0,15.4,0.1,23.1,0.1l0,0l0,0C37,11,38.3,11.6,39.4,12.6c-1-1-2.4-1.5-3.7-2.3l0,0
				c-7.7,0.1-15.4,0.1-23.1,0.1l0.1,0c-1.2,0.7-2.6,1.2-3.6,2.3c-1,1-1.5,2.4-2.3,3.6l0-0.1l0.1,23.1l0-0.1c0.8,1.2,1.3,2.6,2.3,3.6
				c1,1,2.3,1.5,3.6,2.3l-0.1,0l15.9,0l4,0l2,0l1,0c0.1,0,0.2,0,0.2,0c0,0,0.1,0,0.2-0.1l0.4-0.3l1.7-1.1c0.6-0.4,1.2-0.6,1.5-1.1
				c0.7-1.1,1.4-2.2,2.1-3.3l0,0.1c0-7.7,0.1-15.4,0.1-23.1l0,0C40.9,15,40.4,13.6,39.4,12.6z"/>
			<path d="M37.6,28c0-1.8,0-3.6,0-5.4c-0.1-0.9,0.1-1.9-0.5-2.6c-0.3-0.4-0.6-0.6-1.1-0.8c-0.4-0.2-0.8-0.3-1.3-0.4
				c-1.7-0.5-3.6-0.6-5.3-0.3c-0.9,0.2-1.8,0.4-2.6,0.7c-0.8,0.3-1.6,0.9-2.6,0.9c-0.5,0-0.9-0.2-1.3-0.4c-0.4-0.2-0.8-0.4-1.2-0.5
				c-0.8-0.3-1.7-0.5-2.6-0.7c-1.8-0.2-3.6-0.1-5.3,0.4c-0.4,0.1-0.9,0.2-1.3,0.4c-0.4,0.1-0.8,0.3-1.1,0.6
				c-0.5,0.6-0.3,1.6-0.4,2.5l0,5.4l0,5.4l0,1.4c0,0.5,0,0.9,0.1,1.3c0.1,0.4,0.5,0.6,0.9,0.6c0.4,0.1,0.9,0.1,1.3,0.1
				c3.6,0.2,7.2,0.5,10.8,0.7c1.8,0,3.6-0.5,5.4-0.6c1.8-0.1,3.6-0.1,5.4,0c0.5,0,0.9,0.1,1.3,0c0.4,0,0.9-0.2,1.1-0.6
				c0.2-0.4,0.2-0.9,0.2-1.3l0-1.4C37.5,31.6,37.6,29.8,37.6,28z M37.6,28c0,1.8,0,3.6,0,5.4l0.1,1.4c0,0.4,0,0.9-0.2,1.4
				c-0.2,0.4-0.7,0.6-1.2,0.6c-0.5,0-0.9,0-1.4,0c-1.8-0.1-3.6,0-5.4,0.1c-1.8,0.1-3.6,0.6-5.4,0.7c-3.6-0.1-7.2-0.4-10.8-0.5
				c-0.4,0-0.9,0-1.4-0.1c-0.2,0-0.5-0.1-0.7-0.3c-0.2-0.1-0.4-0.4-0.5-0.6c-0.2-0.5-0.1-1-0.2-1.4l0-1.4l0-5.4l0-5.4l0-1.4
				c0-0.5,0.1-1,0.5-1.4c0.3-0.4,0.8-0.6,1.3-0.7c0.4-0.1,0.9-0.3,1.3-0.4c1.8-0.4,3.6-0.6,5.4-0.3c0.9,0.1,1.8,0.4,2.6,0.7
				c0.4,0.2,0.8,0.4,1.2,0.6c0.4,0.2,0.8,0.4,1.2,0.4c0.9,0.1,1.6-0.5,2.5-0.8c0.9-0.3,1.7-0.6,2.6-0.7c1.8-0.3,3.7-0.2,5.4,0.3
				c0.4,0.1,0.9,0.3,1.3,0.4c0.4,0.1,0.8,0.4,1.1,0.8c0.3,0.4,0.5,0.8,0.5,1.3l0,1.4C37.6,24.4,37.6,26.2,37.6,28z"/>
		</g>
	</g>
	<path d="M25.3,34.8c0-4.1-0.1-7.9,0.1-11.8c0-0.7,1-1.7,1.8-2.1c2.4-1.1,5-1.1,7.5-0.3c0.5,0.2,1.2,0.9,1.2,1.4
		c0.1,4.2,0.1,8.4,0.1,12.9C32.4,33.1,28.9,32.8,25.3,34.8z"/>
	<path d="M23,34.8c-3.5-1.9-6.8-1.8-10.4,0c0-2,0-3.7,0-5.4c0-2.2,0.2-4.3,0-6.5c-0.2-1.9,0.8-2.6,2.3-2.7c1.4-0.1,2.8-0.2,4.2,0
		c3.1,0.4,3.9,1.5,3.9,4.6C23.1,28.1,23,31.3,23,34.8z"/>
</g>
</svg>
