<?xml version="1.0" encoding="utf-8"?>
<!-- Generator: Adobe Illustrator 21.0.2, SVG Export Plug-In . SVG Version: 6.00 Build 0)  -->
<svg version="1.1" id="Layer_1" xmlns="http://www.w3.org/2000/svg" xmlns:xlink="http://www.w3.org/1999/xlink" x="0px" y="0px"
	 viewBox="0 0 50 82" style="enable-background:new 0 0 50 82;" xml:space="preserve">
<style type="text/css">
	.st0{fill:#FF0000;stroke:#000000;stroke-width:0.25;stroke-miterlimit:10;}
	.st1{fill:#FFFFFF;}
	.st2{fill:#FEFFFF;}
</style>
<path class="st0" d="M0,24.7C1,11.9,12.9,0.8,25.9,1.5C38.5,1.8,49.4,12.9,50,25.3v2.1c-0.7,6.8-3.8,12.9-6.6,19
	C37.2,58.2,31.3,70.1,25,81.8c-6.4-12-12.5-24.1-18.8-36.1C3.5,39.9,0.8,33.9,0,27.5V24.7z"/>
<path class="st1" d="M22.4,18.6c5.3-2.2,11.6,2.8,10.7,8.4c-0.2,6-8.1,9.6-12.8,5.8C15.1,29.3,16.4,20.4,22.4,18.6z"/>
<g>
	<path d="M13.7,9h22.5c3.2,0.5,5.8,3,6.4,6.3v22.6c-0.5,3.2-3,5.8-6.3,6.3H13.8c-3.2-0.5-5.8-3-6.4-6.3V15.3
		C7.9,12.1,10.5,9.6,13.7,9z"/>
	<path class="st2" d="M17,16.3c0.5-1.3,1.3-3,3-2.8c1.7-0.2,2.5,1.4,2.9,2.7c1.2,0.8,1.5,2.2,0.1,2.9c-0.3-0.2-1-0.5-1.3-0.6
		c-1.2,0.4-2.4,0.4-3.5,0c-0.3,0.2-0.9,0.5-1.2,0.6c-0.4-0.4-0.9-0.8-1.2-1.4C16,17.2,16.6,16.8,17,16.3z"/>
	<path class="st2" d="M30.7,17.5c1.5-0.5,3.2,0.9,3,2.5c0,1.9-2.8,2.8-4,1.4C28.5,20.2,29.1,17.9,30.7,17.5z"/>
	<path class="st2" d="M15.2,24.2c0.6-1.7,1.1-4.2,3.2-4.5c1.7-0.1,4-0.5,5.1,1.1c1.3,2,1.6,4.3,2.4,6.5c1.3-1.7,2-4.5,4.5-4.6
		c1.6-0.2,3.8-0.1,4.5,1.6c0.8,2.1,0.8,4.5,0.9,6.7c-1.8-1.2-1.3-3.6-1.7-5.4c-1,4.4,0,8.8-0.1,13.2c0.3,1-1.5,1.2-1.6,0.3
		c-0.5-2.7-0.8-5.4-0.9-8.1c-0.6,3-0.8,6.1-1.6,9c-0.3-0.2-1-0.6-1.3-0.8c0.1-4.4,0.6-8.9,0.3-13.3c-1.2,1-2.1,3-3.8,2.9
		c-1-1.7-1.6-3.5-2.4-5.2c0.4,2.9,1.1,5.7,1.6,8.5c-0.4,0-1.3,0-1.7,0c-0.2,2.7-0.1,5.4-0.8,8.1c-0.4-0.4-1-0.8-1-1.5
		c-0.2-2.4-0.1-4.8-0.8-7.1c-0.8,2.6-0.5,5.4-1,8.1c-0.3,0-0.8,0-1,0c-0.2-2.5-0.5-5.1-0.6-7.6c-0.6,0-1.2,0-1.8,0
		c0.6-2.9,1.3-5.9,1.8-8.8c-1,2.1-1.8,4.3-3.2,6.2C13.9,27.6,14.8,25.9,15.2,24.2z"/>
</g>
</svg>
