<?xml version="1.0" encoding="utf-8"?>
<!-- Generator: Adobe Illustrator 21.0.2, SVG Export Plug-In . SVG Version: 6.00 Build 0)  -->
<svg version="1.1" id="Layer_1" xmlns="http://www.w3.org/2000/svg" xmlns:xlink="http://www.w3.org/1999/xlink" x="0px" y="0px"
	 viewBox="0 0 32.7 53.9" style="enable-background:new 0 0 32.7 53.9;" xml:space="preserve">
<style type="text/css">
	.st0{display:none;fill:#007ABF;}
	.st1{fill:#1F9606;stroke:#000000;stroke-miterlimit:10;}
	.st2{fill:#FFFFFF;}
</style>
<path class="st0" d="M32.3-0.6h-34c-6.2,0-11.3,5.1-11.3,11.3v34c0,6.2,5.1,11.3,11.3,11.3h34c6.2,0,11.3-5.1,11.3-11.3v-34
	C43.6,4.5,38.5-0.6,32.3-0.6z"/>
<path id="svg_2" class="st1" d="M16.4,50.8c-1.1-5.6-3.2-10.3-5.6-14.6C8.9,33,6.8,30,4.9,26.9c-0.6-1-1.2-2.1-1.8-3.2
	c-1.2-2.2-2.3-4.7-2.2-7.9c0.1-3.2,1-5.7,2.3-7.8C5.4,4.5,9,1.7,13.9,1c4-0.6,7.7,0.4,10.4,2c2.2,1.3,3.9,3,5.1,5
	c1.3,2.1,2.3,4.6,2.3,7.8c0,1.6-0.2,3.2-0.6,4.4c-0.4,1.3-1,2.4-1.6,3.5c-1.1,2.2-2.4,4.3-3.8,6.3C21.8,36.1,18,42.3,16.4,50.8z"/>
<title>Google maps</title>
<title>Layer 1</title>
<g>
	<path class="st2" d="M12.5,9.7c2,0,3.6-1.6,3.6-3.6c0-2-1.6-3.6-3.6-3.6c-2,0-3.6,1.6-3.6,3.6C8.8,8,10.5,9.7,12.5,9.7z"/>
	<path class="st2" d="M13.6,10.4c-0.3-0.1-0.7-0.2-1.1-0.2c-0.4,0-0.8,0.1-1.1,0.2c-1,0.3-4.6,1.8-5.1,8.8c0,0.6,0.4,1.2,1.1,1.2
		c0,0,0.1,0,0.1,0c0.6,0,1.1-0.5,1.2-1.1c0.1-1.6,0.4-2.8,0.8-3.7v3.6c0,0.2,0,0.5,0.1,0.7v9.8c0,0.7,0.6,1.4,1.4,1.4
		c0.7,0,1.4-0.6,1.4-1.4v-7.4c0.1,0,0.2,0,0.3,0c0.1,0,0.2,0,0.3,0v7.4c0,0.7,0.6,1.4,1.4,1.4c0.7,0,1.4-0.6,1.4-1.4v-9.8
		c0.1-0.2,0.1-0.5,0.1-0.7v-3.6c0.4,0.9,0.7,2.1,0.8,3.7c0,0.6,0.6,1.1,1.2,1.1c0,0,0.1,0,0.1,0c0.6,0,1.1-0.6,1.1-1.2
		C18.1,12.2,14.5,10.6,13.6,10.4z"/>
	<path class="st2" d="M22.5,19.4c1.2,0,2.2-1,2.2-2.2s-1-2.2-2.2-2.2c-1.2,0-2.2,1-2.2,2.2S21.3,19.4,22.5,19.4z"/>
	<path class="st2" d="M26.3,25.2C26,21,23.8,20,23.2,19.8c-0.2-0.1-0.4-0.1-0.7-0.1c-0.2,0-0.5,0-0.7,0.1C21.3,20,19,21,18.7,25.2
		c0,0.4,0.3,0.7,0.7,0.8c0,0,0,0,0.1,0c0.4,0,0.7-0.3,0.7-0.7c0.1-1,0.3-1.7,0.5-2.3v1.6c0,0.1,0,0.3,0.1,0.4v4.8
		c0,0.5,0.4,0.8,0.8,0.8c0.5,0,0.8-0.4,0.8-0.8v-3.3c0.1,0,0.1,0,0.2,0c0.1,0,0.1,0,0.2,0v3.3c0,0.5,0.4,0.8,0.8,0.8
		c0.5,0,0.8-0.4,0.8-0.8v-4.8c0-0.1,0.1-0.3,0.1-0.4v-1.6c0.2,0.6,0.4,1.3,0.5,2.3c0,0.4,0.3,0.7,0.7,0.7c0,0,0,0,0.1,0
		C26.1,26,26.3,25.6,26.3,25.2z"/>
</g>
</svg>
